{"title":"Geordie Shore S11E01 1080P WEB-DL","uid":12608438,"size":1592020799,"categoryP":"video","categoryS":"hd___tv_shows","magnet":"?xt=urn:btih:640d62d542c558eedf640979094372cca1e8e597&amp;dn=Geordie+Shore+S11E01+1080P+WEB-DL&amp;tr=udp%3A%2F%2Ftracker.leechers-paradise.org%3A6969&amp;tr=udp%3A%2F%2Fzer0day.ch%3A1337&amp;tr=udp%3A%2F%2Fopen.demonii.com%3A1337&amp;tr=udp%3A%2F%2Ftracker.coppersurfer.tk%3A6969&amp;tr=udp%3A%2F%2Fexodus.desync.com%3A6969","seeders":1,"leechers":0,"uploader":"jmanwf","files":1,"time":1445425444,"description":"The Geordies are back and buzzin' as big boss Anna sends them off to the home of kebab...Greece. Holly and Kyle kick off while Gaz and Charlotte find themselves in a very awkward situation.\r\n\r\n\r\nVideo\r\nID : 2\r\nFormat : AVC\r\nFormat/Info : Advanced Video Codec\r\nFormat profile :   \r\nFormat settings, CABAC : Yes\r\nFormat settings, ReFrames : 4 frames\r\nCodec ID : avc1\r\nCodec ID/Info : Advanced Video Coding\r\nDuration : 41mn 47s\r\nBit rate : 4 949 Kbps\r\nWidth : 1 920 pixels\r\nHeight : 1 080 pixels\r\nDisplay aspect ratio : 16:9\r\nFrame rate mode : Constant\r\nFrame rate : 25.000 fps\r\nColor space : YUV\r\nChroma subsampling : 4:2:0\r\nBit depth : 8 bits\r\nScan type : Progressive\r\nBits/(Pixel*Frame) : 0.095\r\nStream size : 1.44 GiB (97%)\r\nLanguage : English\r\nEncoded date : UTC 2015-10-21 04:09:18\r\nTagged date : UTC 2015-10-21 04:12:52\r\nColor range : Limited\r\nColor primaries : BT.709\r\nTransfer characteristics : BT.709\r\nMatrix coefficients : BT.709\r\n\r\nAudio\r\nID : 1\r\nFormat : AAC\r\nFormat/Info : Advanced Audio Codec\r\nFormat profile : LC\r\nCodec ID : 40\r\nDuration : 41mn 47s\r\nBit rate mode : Variable\r\nBit rate : 126 Kbps\r\nMaximum bit rate : 211 Kbps\r\nChannel(s) : 2 channels\r\nChannel positions : Front: L R\r\nSampling rate : 48.0 KHz\r\nCompression mode : Lossy\r\nStream size : 37.6 MiB (2%)\r\nLanguage : English\r\nEncoded date : UTC 2015-10-21 04:09:18\r\nTagged date : UTC 2015-10-21 04:12:52","torrent":{"xt":"urn:btih:640d62d542c558eedf640979094372cca1e8e597","amp;dn":"Geordie+Shore+S11E01+1080P+WEB-DL","amp;tr":["udp%3A%2F%2Ftracker.leechers-paradise.org%3A6969","udp%3A%2F%2Fzer0day.ch%3A1337","udp%3A%2F%2Fopen.demonii.com%3A1337","udp%3A%2F%2Ftracker.coppersurfer.tk%3A6969","udp%3A%2F%2Fexodus.desync.com%3A6969"],"infoHash":"640d62d542c558eedf640979094372cca1e8e597","infoHashBuffer":{"type":"Buffer","data":[100,13,98,213,66,197,88,238,223,100,9,121,9,67,114,204,161,232,229,151]},"announce":[],"urlList":[]}}